<?xml version="1.0" encoding="UTF-8" standalone="no"?>
<!-- Created with Inkscape (http://www.inkscape.org/) -->

<svg
   width="166.62868mm"
   height="33.050034mm"
   viewBox="0 0 166.62868 33.050034"
   version="1.1"
   id="svg5"
   xml:space="preserve"
   xmlns="http://www.w3.org/2000/svg"
   xmlns:svg="http://www.w3.org/2000/svg"><defs
     id="defs2" /><g
     id="layer1"
     transform="translate(-21.829548,-131.8567)"><path
       style="fill:#000000;stroke-width:0.214377"
       d="m 149.10766,160.90224 c -2.1654,-0.42675 -4.12952,-2.04272 -5.16379,-4.2485 l -0.56492,-1.20481 -0.10718,-6.98851 c -0.0828,-5.39549 -0.17259,-7.06715 -0.39404,-7.33354 -0.15777,-0.18977 -0.68835,-0.42444 -1.17908,-0.52148 -0.83958,-0.16603 -0.89222,-0.21996 -0.89222,-0.91381 v -0.73735 l 4.66271,-0.0337 4.6627,-0.0337 v 0.83144 c 0,0.69289 -0.0726,0.83143 -0.43564,0.83143 -0.2396,0 -0.77515,0.14186 -1.1901,0.31524 l -0.75447,0.31524 0.0647,6.91999 0.0647,6.92001 0.56832,1.07189 c 1.05608,1.99184 2.25843,2.67971 4.68393,2.67971 2.43455,0 4.05593,-0.97373 4.99747,-3.00128 0.41701,-0.89799 0.4537,-1.41928 0.5306,-7.53837 0.0807,-6.41995 0.0722,-6.58405 -0.36156,-7.01784 -0.2443,-0.2443 -0.83141,-0.5061 -1.3047,-0.58178 -0.82795,-0.1324 -0.86052,-0.1682 -0.86052,-0.94584 v -0.80823 l 3.80519,0.0317 3.8052,0.0317 v 0.7266 c 0,0.6889 -0.0535,0.74018 -1.03134,0.98846 -0.56724,0.14403 -1.14606,0.37645 -1.28626,0.5165 -0.18139,0.18118 -0.28984,2.27676 -0.37593,7.26507 -0.13048,7.55869 -0.16802,7.82082 -1.38334,9.65729 -0.76197,1.1514 -2.48709,2.30074 -4.06092,2.70553 -1.378,0.35441 -4.93298,0.40961 -6.49936,0.10092 z m -88.013898,-0.12961 c -0.0786,-0.0786 -0.142919,-0.4094 -0.142919,-0.7351 0,-0.5319 0.117678,-0.6264 1.155846,-0.92821 0.635717,-0.18481 1.214535,-0.48895 1.286264,-0.67587 0.205374,-0.5352 0.145565,-16.88478 -0.06297,-17.214 -0.102753,-0.16222 -0.655978,-0.41407 -1.229386,-0.55966 -0.990029,-0.25138 -1.042562,-0.30133 -1.042562,-0.99132 v -0.7266 l 6.190271,0.0689 c 5.469791,0.0608 6.352491,0.11899 7.584038,0.49937 3.285155,1.01468 4.852715,4.29539 3.781562,7.91434 -0.258038,0.87178 -0.621669,1.43963 -1.447048,2.25967 -1.607982,1.5976 -2.94892,2.0532 -6.413561,2.17909 l -2.738626,0.0995 0.0589,3.34226 0.0589,3.34227 0.75032,0.26179 c 0.412677,0.14399 1.015613,0.31855 1.339859,0.38791 0.506072,0.10827 0.589538,0.23176 0.589538,0.87235 v 0.74624 h -4.787761 c -2.63327,0 -4.852077,-0.0643 -4.93068,-0.14292 z m 10.860817,-11.08274 c 0.862184,-0.36024 1.738312,-1.37232 2.077391,-2.39974 0.140901,-0.42693 0.22006,-1.47206 0.176634,-2.33205 -0.06402,-1.26772 -0.187266,-1.71505 -0.660793,-2.39835 -0.911689,-1.31558 -1.696572,-1.67212 -3.700306,-1.68094 l -1.715019,-0.007 -0.05786,4.55552 -0.05786,4.55552 h 1.61898 c 0.890438,0 1.933913,-0.13159 2.31883,-0.29242 z m 13.864042,10.48361 c 0,-0.69188 0.06161,-0.75853 0.911108,-0.98566 0.5011,-0.13398 1.03169,-0.34246 1.17907,-0.46327 0.19326,-0.15842 0.26797,-1.13962 0.26797,-3.51909 v -3.29942 l -1.42972,-2.6233 c -0.786343,-1.44282 -1.58483,-2.91271 -1.774413,-3.26643 -2.548876,-4.75568 -2.805169,-5.08267 -4.352667,-5.55343 -0.586946,-0.17854 -0.50434,-1.32921 0.107189,-1.4931 0.265292,-0.0711 2.339393,-0.13058 4.609114,-0.13219 l 4.126767,-0.003 v 0.8575 c 0,0.77762 -0.0512,0.85751 -0.55004,0.85751 -0.67673,0 -1.37609,0.35463 -1.3889,0.70427 -0.0122,0.33315 3.92958,8.07958 4.11294,8.0828 0.29462,0.005 4.11084,-7.87216 3.97951,-8.21439 -0.0789,-0.20554 -0.49273,-0.40788 -1.00025,-0.48904 -0.82984,-0.1327 -0.86571,-0.17119 -0.86571,-0.92902 v -0.7906 l 3.48363,0.0141 3.483631,0.0141 v 0.73669 c 0,0.64809 -0.0821,0.75797 -0.68274,0.91361 -1.067061,0.2765 -1.825271,1.21408 -3.557671,4.39931 -0.88371,1.62483 -2.07217,3.77423 -2.64101,4.77644 l -1.03426,1.82221 -0.077,3.14771 c -0.0493,2.01698 0.007,3.30528 0.15778,3.58633 0.14412,0.26928 0.68795,0.57036 1.40868,0.77989 1.12775,0.32784 1.17394,0.37019 1.17394,1.07638 v 0.73511 h -4.82349 -4.823495 v -0.74207 z m 35.841679,-0.0294 c 0.0619,-0.71787 0.14096,-0.79602 1.13842,-1.12549 l 1.07189,-0.35405 0.0596,-8.36071 c 0.0328,-4.59841 0.011,-8.56124 -0.0485,-8.80633 -0.12126,-0.4998 -0.94202,-0.94785 -1.73631,-0.94785 -0.46691,0 -0.52586,-0.0923 -0.52586,-0.82303 v -0.82304 l 4.66271,0.0191 4.66271,0.0191 -0.003,0.72744 c -0.003,0.6899 -0.057,0.74106 -1.04256,0.99132 -0.57158,0.14512 -1.1233,0.39659 -1.22605,0.55881 -0.10276,0.16222 -0.1883,4.12623 -0.19011,8.80892 l -0.003,8.51394 0.47164,0.25242 c 0.62508,0.33452 5.02331,0.10531 6.02711,-0.31409 0.56327,-0.23536 0.81934,-0.52917 1.08181,-1.24128 0.18913,-0.51311 0.52,-1.41527 0.73529,-2.00482 0.38345,-1.05004 0.40823,-1.07084 1.21601,-1.02086 0.45351,0.028 0.84151,0.0763 0.8622,0.10719 0.0207,0.0309 -0.085,1.31027 -0.23478,2.84307 -0.14983,1.5328 -0.27816,3.00397 -0.28517,3.26926 l -0.0127,0.48235 h -8.37366 -8.37366 z m -15.01122,-7.01744 -3.06709,-3.07256 3.11643,-3.22115 3.11642,-3.22114 3.16209,3.18751 3.16209,3.18752 -1.75436,1.76633 c -0.9649,0.97149 -2.31233,2.36968 -2.99428,3.1071 -0.68196,0.73742 -1.33764,1.34035 -1.45707,1.33986 -0.11944,-4.3e-4 -1.59734,-1.38357 -3.28423,-3.07347 z"
       id="path326" /><path
       d="m 176.17764,162.48655 c -4.56852,-0.6032 -8.27778,-3.31797 -9.89635,-7.24305 -0.76654,-1.85886 -0.95803,-2.86388 -0.94849,-4.97791 0.01,-2.14591 0.35933,-3.64477 1.26456,-5.42089 1.66504,-3.26696 4.7621,-5.55692 8.62184,-6.37501 1.3381,-0.28361 3.97004,-0.31629 5.37903,-0.0667 2.17879,0.38581 4.65442,1.37255 6.68754,2.66551 1.51776,0.9652 1.5216,1.04794 0.15248,3.27588 -0.72725,1.18345 -1.15539,1.71398 -1.44102,1.78568 -0.29438,0.0739 -0.9564,-0.17717 -2.40237,-0.91102 -1.63843,-0.83153 -2.29932,-1.06777 -3.68908,-1.31876 -1.61381,-0.29143 -1.75983,-0.29204 -3.11942,-0.0131 -1.68916,0.34663 -2.18164,0.57763 -3.35973,1.57593 -0.6432,0.54502 -1.0599,1.10318 -1.52268,2.03954 -0.60124,1.21656 -0.63735,1.38084 -0.64078,2.91643 -0.003,1.47635 0.0457,1.73143 0.52857,2.75052 0.29271,0.61779 0.81708,1.43858 1.16526,1.82398 0.79395,0.87878 2.70462,1.83783 4.10959,2.06275 1.92993,0.30896 4.47362,-0.37221 7.02663,-1.88167 0.74772,-0.44207 1.33698,-0.66926 1.73589,-0.66926 0.65386,0 0.61531,-0.0442 2.02189,2.31502 0.92024,1.54347 0.87096,1.74633 -0.67831,2.79176 -3.32995,2.24702 -7.49668,3.33632 -10.99505,2.87441 z m 2.96782,-2.64485 c 0,-0.0408 -0.31264,-0.28115 -0.69477,-0.53403 l -0.69478,-0.45978 -0.74673,0.39614 c -0.41071,0.21789 -0.74619,0.48093 -0.74553,0.58457 6.5e-4,0.10358 0.32011,0.39221 0.70984,0.64128 l 0.70861,0.45287 0.73169,-0.5034 c 0.40241,-0.27689 0.73167,-0.53682 0.73167,-0.57765 z m 5.26549,-1.19331 c 0.2933,-0.4263 0.50683,-0.79809 0.47452,-0.82622 -0.0323,-0.0281 -0.4092,-0.10195 -0.83754,-0.16406 -0.76609,-0.11106 -0.78614,-0.10184 -1.22952,0.5682 -0.24791,0.37461 -0.45073,0.75467 -0.45073,0.84459 0,0.0898 0.32433,0.19267 0.72075,0.22838 0.39642,0.0357 0.73617,0.0782 0.75501,0.0945 0.0189,0.0162 0.27421,-0.31914 0.56751,-0.74543 z m -11.70991,-0.18518 c 0,-0.0618 -0.12609,-0.5123 -0.2802,-1.00122 l -0.28022,-0.88894 -0.92119,-0.11509 c -0.50665,-0.0633 -0.94438,-0.0897 -0.97271,-0.0587 -0.0284,0.031 0.0761,0.47581 0.23209,0.98847 0.2445,0.80357 0.35294,0.94695 0.78654,1.03988 0.70419,0.1509 1.43569,0.16906 1.43569,0.0357 z m -3.45371,-7.40333 c 0.29292,-0.64665 0.29269,-0.64824 -0.25724,-1.76346 l -0.55045,-1.11623 -0.66743,1.0851 c -0.36709,0.59681 -0.66748,1.12565 -0.66753,1.17521 -6e-5,0.0495 0.27872,0.53585 0.61951,1.08065 l 0.61959,0.99057 0.30519,-0.40231 c 0.16785,-0.22126 0.43711,-0.69354 0.59836,-1.04953 z m 2.6162,-6.8284 c 0.24767,-0.0689 0.91329,-1.74777 0.75552,-1.90555 -0.0397,-0.0396 -0.4826,-0.0208 -0.98434,0.042 l -0.91226,0.11397 -0.28263,0.89659 c -0.15544,0.49311 -0.28263,0.95382 -0.28263,1.02377 0,0.11566 1.05744,0.01 1.70634,-0.17068 z m 12.94165,-1.43619 c 0.13031,-0.11892 -0.43375,-1.11704 -0.76324,-1.35059 -0.21203,-0.15029 -1.67426,0.028 -1.67426,0.20419 0,0.0922 0.20763,0.45667 0.4614,0.80972 0.42947,0.59746 0.50872,0.636 1.14473,0.55683 0.37583,-0.0469 0.74994,-0.14585 0.83137,-0.22015 z m -6.3264,-1.30597 c 0.36269,-0.25651 0.66108,-0.52038 0.66306,-0.58641 0.001,-0.066 -0.33804,-0.32027 -0.75562,-0.56499 l -0.75922,-0.44495 -0.67866,0.4802 c -0.37326,0.26411 -0.68029,0.53468 -0.68229,0.60126 -0.004,0.14357 1.19751,0.98126 1.40777,0.98126 0.08,0 0.44228,-0.20987 0.80496,-0.46637 z"
       style="fill:#000000;stroke-width:0.169589"
       id="path383" /><path
       d="m 38.084022,164.70151 c -5.507663,-0.69348 -10.471127,-3.46621 -12.060312,-6.73722 -0.502667,-1.03465 -0.766273,-1.00532 -0.766273,0.0853 0,0.98192 -0.208182,2.03326 -0.402616,2.03326 -0.08256,0 -0.321176,-0.56811 -0.530232,-1.26246 -0.306209,-1.01702 -0.378144,-1.89079 -0.370012,-4.49436 0.0092,-2.94625 0.05758,-3.37395 0.547313,-4.83917 0.29547,-0.88401 0.499319,-1.64519 0.452998,-1.69151 -0.04632,-0.0464 -0.663918,0.47244 -1.372442,1.1528 -0.708523,0.68036 -1.394125,1.23702 -1.52356,1.23702 -0.416801,0 -0.251644,-1.20482 0.383035,-2.79426 0.845782,-2.11811 1.384193,-2.98787 2.638338,-4.26195 1.083761,-1.10098 1.033433,-1.21496 -0.309039,-0.6998 -0.237335,0.0911 -0.321755,6.1e-4 -0.321755,-0.34489 0,-1.00042 3.16345,-3.34177 5.857808,-4.33549 l 0.706978,-0.26073 -1.060466,-0.0142 c -0.583256,-0.008 -1.060466,-0.10303 -1.060466,-0.21157 0,-0.60867 2.388117,-1.35064 4.993136,-1.55134 0.913135,-0.0704 1.612223,-0.20561 1.553529,-0.30058 -0.05869,-0.095 -0.331448,-0.17267 -0.606117,-0.17267 -0.556789,0 -0.89215,-0.5574 -0.486279,-0.80824 0.3503,-0.2165 3.022843,-0.60571 4.159145,-0.60571 0.501157,0 1.839397,0.18682 2.973872,0.41514 l 2.062676,0.41515 0.919172,-0.86963 c 0.505546,-0.47829 1.432464,-1.14132 2.059819,-1.4734 1.522309,-0.80581 1.737242,-0.61158 1.290653,1.16629 -0.178887,0.71215 -0.382888,1.44503 -0.453336,1.6286 -0.212564,0.55394 0.148657,0.38754 1.712337,-0.78879 1.937129,-1.45728 2.140141,-1.30165 1.347468,1.033 l -0.583068,1.7173 0.519613,0.5496 c 0.459887,0.48643 0.651024,0.99187 0.577926,1.52826 -0.01279,0.0938 -0.432296,-0.0689 -0.93223,-0.362 -0.499933,-0.29297 -0.90897,-0.46757 -0.90897,-0.38798 0,0.0796 0.630662,0.79513 1.401471,1.59008 0.834248,0.86035 1.451118,1.68408 1.524135,2.03522 0.418396,2.01204 0.998117,3.22546 3.705541,7.75612 1.110341,1.85807 1.238364,2.71847 0.640841,4.30682 -0.683707,1.81745 -1.021435,2.07825 -3.030126,2.34001 -2.618639,0.34124 -3.679319,-0.11585 -4.224586,-1.82053 -0.284128,-0.88828 -0.461686,-1.04578 -2.643191,-2.34473 -1.256824,-0.74837 -2.008989,-1.05777 -2.806713,-1.15455 -0.599375,-0.0727 -1.426054,-0.30378 -1.837066,-0.51347 -0.882312,-0.45013 -1.960432,-1.62229 -2.350265,-2.55529 -0.407832,-0.97609 -0.348756,-3.23424 0.110209,-4.21254 0.370106,-0.7889 1.393526,-2.02276 1.54889,-1.8674 0.0429,0.0429 -0.102642,0.59197 -0.323429,1.22015 -0.237991,0.67713 -0.40143,1.66265 -0.40143,2.4206 0,1.62291 0.741495,2.92221 2.060008,3.60969 1.183587,0.61713 2.975982,0.63337 4.151291,0.0376 0.990229,-0.50193 1.077259,-0.35883 0.325278,0.53486 -0.293258,0.34851 -0.452328,0.69943 -0.353488,0.77984 0.09884,0.0804 0.725088,0.50134 1.391666,0.93544 1.702453,1.10871 2.076385,1.47698 2.342601,2.30709 0.308494,0.96197 0.744982,1.43476 1.324587,1.43476 0.588816,0 0.588688,-0.0733 -0.0015,-0.87196 -0.747767,-1.01171 -0.796351,-1.14799 -0.409418,-1.14799 0.193211,0 0.738333,0.41562 1.211382,0.92361 1.143518,1.22793 1.791283,1.19941 2.450536,-0.10792 0.706231,-1.40051 0.609836,-1.83278 -1.034271,-4.63817 -2.048525,-3.49545 -2.922036,-5.28612 -3.079729,-6.31335 -0.117934,-0.76823 -0.394671,-1.13769 -2.309793,-3.08375 -1.921743,-1.95278 -2.21445,-2.17887 -2.506745,-1.93629 -0.279574,0.23203 -0.374759,0.23033 -0.613281,-0.011 -0.24201,-0.24483 -0.195596,-0.54126 0.324897,-2.07498 0.333984,-0.98413 0.567913,-1.82867 0.51984,-1.87674 -0.183949,-0.18395 -1.440411,1.07252 -2.093585,2.0936 -0.60218,0.94135 -0.763071,1.06749 -1.361531,1.06749 -2.113081,0 -6.976739,1.83338 -9.206609,3.47046 -4.845464,3.55735 -8.147775,11.02375 -6.735394,15.22845 0.848016,2.52459 3.363227,4.82135 6.623984,6.04869 1.421847,0.53519 4.372259,1.3056 5.009752,1.30815 0.714911,0.003 0.553281,-0.37732 -2.835639,-6.66984 -1.67355,-3.10744 -2.080625,-5.90306 -1.237028,-8.49539 0.412935,-1.26893 1.415282,-2.8061 2.178259,-3.3405 0.31562,-0.22107 0.264483,0.006 -0.288073,1.27662 -1.804361,4.15065 -1.463681,6.20271 2.044002,12.31184 1.298405,2.26135 2.132704,4.18159 2.376672,5.47019 0.09736,0.51423 0.04198,0.69614 -0.261324,0.85848 -0.211673,0.11327 -0.504459,0.19447 -0.650633,0.1804 -0.146174,-0.014 -0.90205,-0.10565 -1.679725,-0.20357 z M 24.917427,146.26875 c 0.353649,-0.26535 1.18303,-0.76772 1.843064,-1.11638 0.912319,-0.48192 1.506364,-1.01675 2.477516,-2.23053 1.165181,-1.45631 4.056108,-4.04836 4.515139,-4.04836 0.104506,0 0.19001,-0.0994 0.19001,-0.22095 0,-0.23862 -1.470339,-0.1115 -2.928905,0.25325 -1.251742,0.31302 -3.765782,1.57547 -3.616957,1.81626 0.07209,0.11665 0.392773,0.15974 0.712636,0.0957 0.319862,-0.064 0.831498,-0.019 1.136965,0.1 l 0.555394,0.21632 -0.501909,0.33415 c -2.015969,1.34204 -3.664343,2.77668 -4.407255,3.83577 -1.130486,1.61163 -1.125058,1.82713 0.0243,0.96471 z m 15.530075,-10.0305 c 2.242849,-0.44277 2.177888,-0.40505 1.272402,-0.73899 -0.444386,-0.16388 -1.626047,-0.33868 -2.625915,-0.38842 -1.787834,-0.089 -1.809652,-0.0844 -1.317342,0.27065 0.275328,0.1986 0.638917,0.51259 0.807973,0.69776 0.376812,0.4127 0.517108,0.42467 1.862882,0.159 z m 13.374074,16.47221 c -0.167457,-0.6672 0.02097,-1.11141 0.471418,-1.11141 0.304206,0 0.352304,0.13487 0.288114,0.80796 -0.08777,0.92032 -0.5576,1.10802 -0.759532,0.30345 z m -4.728911,-8.28218 c -0.138304,-0.16665 -0.513021,-0.303 -0.832706,-0.303 -0.640244,0 -1.389223,-0.6176 -1.389223,-1.14555 0,-0.18567 -0.150432,-0.50381 -0.334296,-0.70698 -0.316608,-0.34985 -0.303251,-0.36916 0.252492,-0.36496 0.674809,0.006 2.096548,0.60493 2.427199,1.02404 0.280613,0.35565 0.515342,1.79944 0.292553,1.79944 -0.09051,0 -0.277717,-0.13634 -0.416019,-0.30299 z"
       style="fill:#000000;stroke-width:0.201993"
       id="path411" /></g></svg>
